<svg width="512" height="512" viewBox="0 0 512 512" fill="none" xmlns="http://www.w3.org/2000/svg">
<path d="M131.496 155.529H380.506V43.936H15.2207V300.24H131.496V155.529Z" fill="#E6F3EA"/>
<path d="M481.56 238.292V396.614H451.849C449.719 396.613 447.612 397.06 445.665 397.925C443.718 398.791 441.974 400.055 440.547 401.637C439.12 403.219 438.041 405.083 437.38 407.108C436.719 409.133 436.49 411.275 436.709 413.394L439.513 440.583L363.794 398.528C361.534 397.272 358.991 396.613 356.405 396.613H146.715V170.75H380.505C388.91 170.75 395.725 163.936 395.725 155.53V43.9351C395.725 35.5291 388.909 28.7151 380.505 28.7151H15.22C6.816 28.7141 0 35.5291 0 43.9351V300.239C0 308.645 6.816 315.459 15.22 315.459H116.275V411.833C116.275 420.239 123.091 427.053 131.495 427.053H352.459L450.255 481.371C452.687 482.724 455.444 483.384 458.226 483.278C461.007 483.173 463.706 482.307 466.029 480.774C468.353 479.241 470.211 477.1 471.402 474.584C472.593 472.069 473.071 469.275 472.784 466.506L468.717 427.055H496.78C505.185 427.055 512 420.241 512 411.835V238.292C512 229.886 505.184 223.072 496.78 223.072C488.375 223.072 481.56 229.886 481.56 238.292ZM30.44 59.1561H365.284V140.31H131.494C123.089 140.31 116.274 147.124 116.274 155.53V285.02H30.44V59.1561Z" fill="#79B38A"/>
<path d="M214.445 252.293H413.83C422.234 252.293 429.05 245.479 429.05 237.073C429.05 228.667 422.235 221.853 413.83 221.853H214.445C206.041 221.853 199.225 228.667 199.225 237.073C199.225 245.479 206.04 252.293 214.445 252.293Z" fill="#79B38A"/>
<path d="M214.445 338.175H413.83C422.234 338.175 429.05 331.361 429.05 322.955C429.05 314.549 422.235 307.735 413.83 307.735H214.445C206.041 307.735 199.225 314.549 199.225 322.955C199.225 331.361 206.04 338.175 214.445 338.175Z" fill="#79B38A"/>
</svg>
